<?xml version="1.0" encoding="utf-8"?>
<!-- Generator: Adobe Illustrator 19.0.0, SVG Export Plug-In . SVG Version: 6.00 Build 0)  -->
<svg version="1.1" baseProfile="tiny" id="Слой_1"
	 xmlns="http://www.w3.org/2000/svg" xmlns:xlink="http://www.w3.org/1999/xlink" x="0px" y="0px" viewBox="834 261.8 1166.7 306.2"
	 xml:space="preserve">
<g>
	<path fill="#FFFFFF" d="M842.1,453.3V285h68.8c4.5,0,9.1,0.4,14,1.2c4.9,0.8,10.2,2.3,15.9,4.4c5.8,2.2,10.9,4.9,15.3,8.1
		c4.5,3.3,8.2,7.7,11.1,13.3c3,5.6,4.4,11.9,4.4,18.9c0,14.5-4.4,26-13.3,34.5c-8.9,8.5-20.5,13.9-34.9,16.3l55.1,71.4h-15.6
		l-53.4-69h-55.4v69L842.1,453.3L842.1,453.3z M854.3,372.5h50.6c19-0.2,32.9-3.8,41.6-10.8c8.7-7,13.1-17.3,13.1-30.7
		c0-10.5-4.4-18.9-13.3-25c-8.9-6.1-19.6-9.2-32.2-9.2h-59.7L854.3,372.5L854.3,372.5z M1002.2,293.4h16.1v20.4h-16.1V293.4z
		 M1016.1,353.8V331h-11.7v122.2h11.7L1016.1,353.8L1016.1,353.8z M1063.8,453.3H1052V331h11.7v20.9c9.9-15.8,23.6-23.7,41.2-23.7
		c16.8,0,29.6,4.6,38.4,13.9c8.8,9.3,13.2,22.4,13.2,39.3v71.9h-11.7v-67.1c0-31-13.9-46.7-41.7-47c-18.4,0-31.5,10.5-39.3,31.4
		L1063.8,453.3L1063.8,453.3z M1311.8,433.9h-0.2c-0.2,3.4-0.6,8.1-1.2,14.4c-0.6,5-2.6,10-5.8,15.1c-3.2,5.1-7.3,9.9-12.2,14.3
		c-5,4.4-11,8-18.2,10.8c-7.2,2.8-14.7,4.2-22.5,4.2c-15.7,0-31.1-4.1-46.3-12.2v-14.9c9.3,10.5,24.4,15.8,45.5,15.8
		c6.4,0,12.2-0.8,17.4-2.5c5.2-1.7,9.4-3.6,12.7-5.9c3.3-2.2,6.2-5.2,8.6-8.8c2.5-3.6,4.3-6.7,5.5-9.3c1.2-2.6,2.2-5.8,3-9.5
		c0.8-3.7,1.2-6.1,1.3-7.2c0.1-1.1,0.2-2.6,0.4-4.6v-18.2c-2.2,3.4-4.8,6.5-7.5,9.5c-2.8,3-6.2,6-10.3,9c-4.1,3-8.8,5.4-14.3,7.2
		c-5.4,1.8-11.2,2.6-17.3,2.6c-6.4,0-13-1.2-19.9-3.7c-6.9-2.5-13.3-6-19.4-10.7c-6.1-4.6-11.1-10.7-15.1-18.2c-4-7.5-6-15.7-6-24.4
		c0-9.1,2.4-18.1,7.1-27c4.7-8.9,11.6-16.3,20.6-22.4c9-6.1,18.8-9.1,29.4-9.1c6.2,0,12.1,0.7,17.5,2.2c5.4,1.4,9.8,3,13.2,4.8
		c3.4,1.8,6.6,4.2,9.8,7.2c3.2,3,5.4,5.4,6.7,7c1.3,1.6,2.8,3.7,4.6,6.2c0.5,0.6,0.8,1.1,1,1.4v-25.6h12L1311.8,433.9L1311.8,433.9z
		 M1299.9,375.4c-0.2-0.5-0.8-2-2-4.7c-1.2-2.6-2.4-5.1-3.5-7.3c-1.1-2.2-3-4.9-5.8-8c-2.7-3.1-5.8-5.8-9.1-7.9s-7.8-4-13.4-5.5
		c-5.6-1.5-11.8-2.3-18.7-2.3c-10.4,0-19.3,2.6-26.6,7.9c-7.4,5.3-12.4,11.7-15.2,19.4c-2.8,7.7-3.5,15.9-2.2,24.8
		c1.4,8.9,4.9,16.7,10.7,23.6c7.7,9.3,17.3,14.8,29,16.5c11.7,1.8,22.8-0.4,33.6-6.5c10.7-6.1,18.5-15.2,23.2-27.3L1299.9,375.4
		L1299.9,375.4z M1408,456.2c-9.1,0-17.5-1.7-25-5.2c-7.6-3.4-14.2-8-19.8-13.8c-5.6-5.8-9.9-12.5-13.1-20.1
		c-3.1-7.7-4.7-15.8-4.7-24.4v-0.5c0-8.6,1.6-16.8,4.7-24.4c3.1-7.7,7.5-14.5,13.2-20.4c5.7-5.9,12.3-10.6,20-14
		c7.7-3.4,16.1-5.2,25.2-5.2c9.1,0,17.5,1.7,25,5.2c7.6,3.4,14.2,8,19.8,13.8c5.6,5.8,9.9,12.5,13.1,20.1c3.1,7.7,4.7,15.8,4.7,24.4
		v0.5c0,8.6-1.6,16.8-4.7,24.4c-3.1,7.7-7.5,14.5-13.2,20.4c-5.7,5.9-12.3,10.6-20,14C1425.5,454.4,1417.1,456.2,1408,456.2
		L1408,456.2z M1408.4,445.1c7.2,0,13.9-1.4,20-4.2c6.2-2.8,11.4-6.5,15.8-11.3c4.4-4.7,7.8-10.3,10.3-16.7
		c2.5-6.4,3.7-13.2,3.7-20.4v-0.5c0-7.3-1.3-14.3-3.8-20.7c-2.6-6.5-6.1-12.1-10.7-16.9c-4.6-4.8-9.9-8.5-16.1-11.3
		c-6.2-2.7-12.7-4.1-19.8-4.1c-7.2,0-13.9,1.4-20,4.2c-6.2,2.8-11.4,6.6-15.8,11.3c-4.4,4.7-7.8,10.3-10.3,16.7
		c-2.5,6.4-3.7,13.2-3.7,20.4v0.5c0,7.4,1.3,14.3,3.8,20.7c2.6,6.5,6.1,12.1,10.7,16.9c4.6,4.8,9.9,8.5,16.1,11.3
		C1394.8,443.8,1401.4,445.1,1408.4,445.1L1408.4,445.1z M1572.6,351.9c-1.1-0.8-2.7-1.8-4.7-2.9c-2-1.1-5.8-2.8-11.5-4.9
		c-5.7-2.2-11-3.6-16.1-4.3s-10.5-0.2-16.3,1.4c-5.8,1.7-10.7,5.1-14.5,10.2c-3.4,6.2-3.8,11.6-1.3,16.2c2.5,4.6,6.6,7.9,12.2,9.9
		c5.7,2.1,12.2,4.4,19.5,7c7.3,2.6,14.3,5.1,20.7,7.5c6.5,2.5,11.7,6.3,15.8,11.5c4.1,5.2,5.7,11.5,4.9,18.8
		c-1,9.8-4.4,17.4-10.4,22.9s-13,8.7-21.1,9.6c-8.1,0.9-16.3,0.7-24.6-0.6c-8.3-1.3-15.7-3.4-22.2-6.2c-6.5-2.9-10.8-5.8-13.1-8.6
		l5.8-10.3c1.6,1.1,3.8,2.6,6.6,4.3c2.8,1.8,8,4.1,15.6,7.1c7.6,3,14.6,4.4,21,4.4c10.4,0,18.1-2.3,23-6.9
		c4.9-4.6,7.4-10.8,7.4-18.5c0-4.5-2.2-8.5-6.6-12.1c-4.4-3.6-9.4-6.4-15-8.3c-5.6-1.9-12.7-3.8-21.3-5.8c-11.3-2.6-20-7.5-26-15
		s-7.6-15.7-4.7-24.8c2.9-8.9,8.8-15.7,17.6-20.1c8.9-4.5,18.3-6,28.2-4.6c5.6,0.8,11.5,2.4,17.6,4.7c6.2,2.3,10.9,4.4,14.3,6.4
		l5,2.9L1572.6,351.9L1572.6,351.9z M1625.8,331h42.2v10.5h-42.2v60.2c0,1.1,0,3.2-0.1,6.2c-0.1,3-0.1,5.2-0.1,6.6
		c0,1.4,0.1,3.3,0.2,5.9c0.2,2.6,0.5,4.6,1,6.1c0.5,1.5,1.2,3.2,2,5.2c0.9,1.9,2,3.6,3.2,5c7.8,8.9,20,10.4,36.4,4.3l0.5,10.8
		l-1.7,0.5c-1.1,0.3-2,0.6-2.8,0.8c-0.7,0.2-1.8,0.5-3.4,0.8c-1.5,0.3-2.9,0.6-4.2,0.7c-1.3,0.2-2.9,0.3-4.8,0.4
		c-1.9,0.1-3.7,0-5.3-0.1c-1.6-0.2-3.4-0.4-5.4-0.8c-2-0.4-3.9-1-5.6-1.8c-1.8-0.8-3.6-1.8-5.6-3.1c-2-1.3-3.9-2.7-5.6-4.3
		c-3.5-3.2-6.2-8-7.9-14.5c-1.8-6.5-2.7-11.3-2.8-14.5c-0.1-3.2-0.1-7.9-0.1-14.1v-60.2h-17.7V331h17.7V292h12L1625.8,331
		L1625.8,331z M1690.5,339.9c12.9-7,27.4-10.5,43.4-10.5c34,0,51.1,17.2,51.1,51.5v72.4h-11.5v-20.4l-0.7,0.7
		c-0.3,0.6-0.9,1.4-1.7,2.3c-0.8,0.9-1.7,1.9-2.8,3.1c-1,1.2-2.4,2.5-4,3.8c-1.6,1.4-3.3,2.7-5.2,4.1c-1.8,1.4-4,2.6-6.4,3.8
		c-2.4,1.2-4.9,2.2-7.4,3.1c-2.6,0.9-5.4,1.6-8.6,2.2c-3.2,0.6-6.5,0.8-9.8,0.8c-15,0-26.7-3.9-35.1-11.7
		c-8.4-7.8-12.6-17.6-12.6-29.2c0-11.2,4.8-20.3,14.3-27.4c9.5-7.1,21.9-10.7,37.3-10.7h42.4c0-18.7-7.3-30.5-21.8-35.5
		c-4.5-1.4-9.5-2.2-15-2.2s-10.6,0.3-15.2,0.8c-4.6,0.6-8.5,1.3-11.5,2.3c-3,1-5.5,1.9-7.4,2.8c-1.9,0.9-3.6,1.8-5.2,2.8
		c-1.5,1-2.4,1.4-2.5,1.4L1690.5,339.9L1690.5,339.9z M1774,402v-13.2c-2.9,0-6,0-9.5-0.1c-3.4-0.1-6.8-0.1-10.1-0.1h-12.1
		c-10.4,0-19.4,0.7-27,2c-7.6,1.4-13.5,4.3-17.6,8.8c-1.6,1.6-2.9,3.8-4,6.7c-1,2.9-1.7,6-2,9.5c-0.3,3.4,0.1,6.9,1.3,10.3
		c1.2,3.4,3,6.6,5.5,9.5c2.5,2.9,6.2,5.2,11.1,7.1c4.9,1.8,10.9,2.8,17.7,2.8c4.6,0,8.9-0.4,12.8-1.2c3.9-0.8,7.3-1.8,10.2-3.1
		c2.9-1.3,5.5-2.7,7.9-4.3c2.4-1.6,4.3-3.3,5.9-5.2c1.5-1.8,2.8-3.7,4-5.5c1.1-1.8,2-3.6,2.6-5.3c0.6-1.7,1.2-3.2,1.6-4.4
		c0.4-1.3,0.8-2.6,1.1-4.1C1773.6,412,1773.8,408.7,1774,402L1774,402z M1828.4,331h42.2v10.5h-42.2v60.2c0,1.1,0,3.2-0.1,6.2
		c-0.1,3-0.1,5.2-0.1,6.6c0,1.4,0.1,3.3,0.2,5.9c0.2,2.6,0.5,4.6,1,6.1c0.5,1.5,1.2,3.2,2,5.2c0.9,1.9,2,3.6,3.2,5
		c7.8,8.9,20,10.4,36.4,4.3l0.5,10.8l-1.7,0.5c-1.1,0.3-2,0.6-2.8,0.8c-0.7,0.2-1.8,0.5-3.4,0.8c-1.5,0.3-2.9,0.6-4.2,0.7
		c-1.3,0.2-2.9,0.3-4.8,0.4c-1.9,0.1-3.7,0-5.3-0.1c-1.6-0.2-3.4-0.4-5.4-0.8c-2-0.4-3.9-1-5.6-1.8c-1.8-0.8-3.6-1.8-5.6-3.1
		c-2-1.3-3.9-2.7-5.6-4.3c-3.5-3.2-6.2-8-7.9-14.5c-1.8-6.5-2.7-11.3-2.8-14.5c-0.1-3.2-0.1-7.9-0.1-14.1v-60.2h-17.7V331h17.7V292
		h12L1828.4,331L1828.4,331z"/>
</g>
<g>
	<path fill="#FFFFFF" d="M1353.3,544.4v-49.5h3.4v49.5H1353.3z M1393.9,544.4v-23.9c0-3.7-0.8-6.4-2.3-8.1c-1.6-1.7-4-2.5-7.2-2.5
		c-4.4,0-7.6,1.1-9.7,3.3c-2,2.2-3.1,5.8-3.1,10.8v20.3h-3.4v-36.8h2.8l0.6,5h0.2c2.4-3.8,6.6-5.8,12.8-5.8
		c8.3,0,12.5,4.5,12.5,13.4v24.1L1393.9,544.4L1393.9,544.4z M1417.1,542.1c2.1,0,4-0.2,5.6-0.5v2.7c-1.6,0.5-3.5,0.8-5.6,0.8
		c-3.2,0-5.6-0.9-7.2-2.6c-1.5-1.7-2.3-4.5-2.3-8.2v-23.8h-5.4v-2l5.4-1.5l1.7-8.3h1.7v8.9h10.8v2.9h-10.8v23.3
		c0,2.8,0.5,4.9,1.5,6.3C1413.4,541.4,1415,542.1,1417.1,542.1L1417.1,542.1z M1443.7,545.1c-5.3,0-9.5-1.6-12.5-4.9
		c-3-3.3-4.5-7.9-4.5-13.8c0-5.9,1.4-10.6,4.3-14.1c2.9-3.5,6.8-5.3,11.7-5.3c4.3,0,7.8,1.5,10.3,4.5c2.5,3,3.8,7.1,3.8,12.3v2.7
		h-26.5c0,5.1,1.2,8.9,3.5,11.6c2.3,2.7,5.6,4,9.9,4c2.1,0,3.9-0.1,5.5-0.4c1.6-0.3,3.6-0.9,6-1.9v3c-2.1,0.9-4,1.5-5.8,1.8
		S1445.8,545.1,1443.7,545.1L1443.7,545.1z M1442.7,509.9c-3.5,0-6.4,1.2-8.5,3.5c-2.1,2.3-3.4,5.7-3.8,10.1h22.7
		c0-4.3-0.9-7.6-2.8-10C1448.5,511.1,1446,509.9,1442.7,509.9L1442.7,509.9z M1468.5,544.4h-3.3v-52.7h3.3V544.4L1468.5,544.4z
		 M1482.4,544.4h-3.4v-52.7h3.4V544.4L1482.4,544.4z M1492.5,497.4c0-2.2,0.7-3.2,2.1-3.2c0.7,0,1.2,0.3,1.6,0.8
		c0.4,0.6,0.6,1.4,0.6,2.4c0,1-0.2,1.8-0.6,2.4c-0.4,0.6-0.9,0.9-1.6,0.9C1493.2,500.7,1492.5,499.6,1492.5,497.4L1492.5,497.4z
		 M1496.4,544.4h-3.3v-36.8h3.3V544.4L1496.4,544.4z M1535.6,507.6v2.3l-7.6,0.5c2,2.5,3,5.3,3,8.3c0,3.5-1.2,6.4-3.5,8.6
		c-2.4,2.2-5.5,3.3-9.5,3.3c-1.7,0-2.8-0.1-3.5-0.2c-1.3,0.7-2.3,1.5-3,2.5c-0.7,0.9-1.1,2-1.1,3c0,1.2,0.4,2,1.3,2.6
		c0.9,0.5,2.4,0.8,4.5,0.8h6.4c4,0,7.1,0.8,9.2,2.4c2.1,1.6,3.2,4,3.2,7.2c0,3.9-1.6,6.9-4.7,9c-3.2,2.1-7.6,3.2-13.5,3.2
		c-4.6,0-8.2-0.9-10.7-2.7c-2.5-1.8-3.8-4.3-3.8-7.4c0-2.5,0.8-4.6,2.4-6.3c1.6-1.7,3.7-2.8,6.4-3.4c-1.1-0.5-2-1.1-2.7-2
		c-0.7-0.9-1-1.9-1-3c0-2.5,1.6-4.6,4.7-6.5c-2.1-0.9-3.8-2.3-5-4.1c-1.2-1.9-1.8-4-1.8-6.5c0-3.7,1.2-6.6,3.5-8.9
		c2.3-2.2,5.5-3.3,9.5-3.3c2.4,0,4.3,0.2,5.6,0.7L1535.6,507.6L1535.6,507.6z M1505.9,550.6c0,5.1,3.8,7.6,11.3,7.6
		c9.7,0,14.5-3.1,14.5-9.2c0-2.2-0.8-3.8-2.3-4.8c-1.5-1-4-1.5-7.3-1.5h-6C1509.2,542.7,1505.9,545.3,1505.9,550.6L1505.9,550.6z
		 M1508.7,519.1c0,2.8,0.9,5,2.6,6.6c1.7,1.6,4,2.4,6.9,2.4c3.1,0,5.4-0.8,7.1-2.3c1.6-1.6,2.5-3.8,2.5-6.8c0-3.1-0.8-5.5-2.5-7.1
		c-1.7-1.6-4-2.4-7.1-2.4c-2.9,0-5.2,0.8-6.9,2.5C1509.5,513.7,1508.7,516.1,1508.7,519.1L1508.7,519.1z M1556.3,545.1
		c-5.3,0-9.5-1.6-12.5-4.9c-3-3.3-4.5-7.9-4.5-13.8c0-5.9,1.4-10.6,4.3-14.1c2.9-3.5,6.8-5.3,11.7-5.3c4.3,0,7.8,1.5,10.3,4.5
		c2.5,3,3.8,7.1,3.8,12.3v2.7h-26.5c0,5.1,1.2,8.9,3.5,11.6c2.3,2.7,5.6,4,9.9,4c2.1,0,3.9-0.1,5.5-0.4c1.6-0.3,3.6-0.9,6-1.9v3
		c-2.1,0.9-4,1.5-5.8,1.8S1558.4,545.1,1556.3,545.1L1556.3,545.1z M1555.3,509.9c-3.5,0-6.4,1.2-8.5,3.5c-2.1,2.3-3.4,5.7-3.8,10.1
		h22.7c0-4.3-0.9-7.6-2.8-10C1561.2,511.1,1558.6,509.9,1555.3,509.9L1555.3,509.9z M1603.4,544.4v-23.9c0-3.7-0.8-6.4-2.3-8.1
		c-1.6-1.7-4-2.5-7.2-2.5c-4.4,0-7.6,1.1-9.7,3.3c-2,2.2-3.1,5.8-3.1,10.8v20.3h-3.3v-36.8h2.8l0.6,5h0.2c2.4-3.8,6.6-5.8,12.8-5.8
		c8.3,0,12.5,4.5,12.5,13.4v24.1L1603.4,544.4L1603.4,544.4z M1626.6,542.1c2.1,0,4-0.2,5.6-0.5v2.7c-1.6,0.5-3.5,0.8-5.6,0.8
		c-3.2,0-5.6-0.9-7.2-2.6s-2.3-4.5-2.3-8.2v-23.8h-5.4v-2l5.4-1.5l1.7-8.3h1.7v8.9h10.8v2.9h-10.8v23.3c0,2.8,0.5,4.9,1.5,6.3
		C1622.9,541.4,1624.5,542.1,1626.6,542.1L1626.6,542.1z M1669.3,545.1c-5.3,0-9.4-1.7-12.4-5c-3-3.3-4.5-7.9-4.5-13.9
		c0-6.1,1.5-10.8,4.6-14.2c3.1-3.4,7.3-5.1,12.7-5.1c3.2,0,6.2,0.6,9.1,1.7l-0.9,3c-3.2-1.1-5.9-1.6-8.3-1.6
		c-4.5,0-7.9,1.4-10.3,4.2c-2.3,2.8-3.5,6.8-3.5,12c0,5,1.2,8.9,3.5,11.7c2.3,2.8,5.6,4.2,9.7,4.2c3.3,0,6.4-0.6,9.3-1.8v3.1
		C1676.2,544.5,1673.2,545.1,1669.3,545.1L1669.3,545.1z M1708.2,544.4l-0.8-5.8h-0.3c-1.8,2.4-3.8,4-5.7,5c-1.9,1-4.3,1.5-6.9,1.5
		c-3.6,0-6.4-0.9-8.4-2.8c-2-1.8-3-4.4-3-7.7c0-3.6,1.5-6.4,4.5-8.4c3-2,7.3-3,13-3.1l7-0.2v-2.4c0-3.5-0.7-6.1-2.1-7.9
		c-1.4-1.8-3.7-2.7-6.9-2.7c-3.4,0-6.9,0.9-10.6,2.8l-1.3-2.9c4-1.9,8-2.8,12-2.8c4,0,7.1,1,9.1,3.1c2,2.1,3,5.4,3,9.8v24.5
		L1708.2,544.4L1708.2,544.4z M1694.6,542c3.9,0,7-1.1,9.3-3.4c2.3-2.2,3.4-5.4,3.4-9.4v-3.6l-6.4,0.3c-5.2,0.2-8.8,1.1-11.1,2.4
		c-2.2,1.4-3.3,3.5-3.3,6.4c0,2.3,0.7,4.1,2.1,5.4C1690.1,541.4,1692.1,542,1694.6,542L1694.6,542z M1724.2,544.4h-3.3v-52.7h3.3
		V544.4L1724.2,544.4z M1738.1,544.4h-3.4v-52.7h3.4V544.4L1738.1,544.4z M1774.7,542.1c2.1,0,4-0.2,5.6-0.5v2.7
		c-1.6,0.5-3.5,0.8-5.6,0.8c-3.2,0-5.6-0.9-7.2-2.6c-1.5-1.7-2.3-4.5-2.3-8.2v-23.8h-5.4v-2l5.4-1.5l1.7-8.3h1.7v8.9h10.8v2.9h-10.8
		v23.3c0,2.8,0.5,4.9,1.5,6.3C1771,541.4,1772.6,542.1,1774.7,542.1L1774.7,542.1z M1800.9,506.9c1.6,0,3.2,0.2,5,0.5l-0.6,3.2
		c-1.5-0.4-3.1-0.6-4.8-0.6c-3.1,0-5.7,1.3-7.7,4c-2,2.7-3,6-3,10.1v20.3h-3.3v-36.8h2.8l0.3,6.6h0.2c1.5-2.7,3.1-4.6,4.8-5.7
		S1798.5,506.9,1800.9,506.9L1800.9,506.9z M1834,544.4l-0.8-5.8h-0.3c-1.9,2.4-3.8,4-5.7,5c-1.9,1-4.3,1.5-6.9,1.5
		c-3.6,0-6.4-0.9-8.4-2.8c-2-1.8-3-4.4-3-7.7c0-3.6,1.5-6.4,4.5-8.4c3-2,7.3-3,13-3.1l7-0.2v-2.4c0-3.5-0.7-6.1-2.1-7.9
		c-1.4-1.8-3.7-2.7-6.9-2.7c-3.4,0-6.9,0.9-10.6,2.8l-1.3-2.9c4-1.9,8-2.8,12-2.8c4,0,7.1,1,9.1,3.1c2,2.1,3,5.4,3,9.8v24.5
		L1834,544.4L1834,544.4z M1820.5,542c3.9,0,7-1.1,9.3-3.4c2.3-2.2,3.4-5.4,3.4-9.4v-3.6l-6.4,0.3c-5.2,0.2-8.8,1.1-11,2.4
		c-2.2,1.4-3.3,3.5-3.3,6.4c0,2.3,0.7,4.1,2.1,5.4C1815.9,541.4,1817.9,542,1820.5,542L1820.5,542z M1861.4,545.1
		c-5.3,0-9.4-1.7-12.4-5c-3-3.3-4.5-7.9-4.5-13.9c0-6.1,1.5-10.8,4.6-14.2c3.1-3.4,7.3-5.1,12.7-5.1c3.2,0,6.2,0.6,9.1,1.7l-0.9,3
		c-3.2-1.1-5.9-1.6-8.3-1.6c-4.5,0-7.9,1.4-10.3,4.2c-2.3,2.8-3.5,6.8-3.5,12c0,5,1.2,8.9,3.5,11.7c2.3,2.8,5.6,4.2,9.7,4.2
		c3.3,0,6.4-0.6,9.3-1.8v3.1C1868.2,544.5,1865.2,545.1,1861.4,545.1L1861.4,545.1z M1881.1,528.2l18.8-20.6h4.1l-14.5,15.7
		l15.7,21.1h-4l-14-18.6l-6,5.5v13.1h-3.4v-52.7h3.4v26.4l-0.2,10.1L1881.1,528.2L1881.1,528.2z M1909.2,497.4
		c0-2.2,0.7-3.2,2.1-3.2c0.7,0,1.2,0.3,1.6,0.8c0.4,0.6,0.6,1.4,0.6,2.4c0,1-0.2,1.8-0.6,2.4c-0.4,0.6-0.9,0.9-1.6,0.9
		C1909.9,500.7,1909.2,499.6,1909.2,497.4L1909.2,497.4z M1913,544.4h-3.4v-36.8h3.4V544.4L1913,544.4z M1949.2,544.4v-23.9
		c0-3.7-0.8-6.4-2.3-8.1s-4-2.5-7.2-2.5c-4.4,0-7.6,1.1-9.7,3.3c-2,2.2-3.1,5.8-3.1,10.8v20.3h-3.4v-36.8h2.8l0.6,5h0.2
		c2.4-3.8,6.6-5.8,12.8-5.8c8.3,0,12.5,4.5,12.5,13.4v24.1L1949.2,544.4L1949.2,544.4z M1991.4,507.6v2.3l-7.6,0.5
		c2,2.5,3,5.3,3,8.3c0,3.5-1.2,6.4-3.5,8.6c-2.4,2.2-5.5,3.3-9.5,3.3c-1.7,0-2.8-0.1-3.5-0.2c-1.3,0.7-2.3,1.5-3,2.5
		c-0.7,0.9-1.1,2-1.1,3c0,1.2,0.4,2,1.3,2.6c0.9,0.5,2.4,0.8,4.5,0.8h6.4c4,0,7,0.8,9.2,2.4c2.1,1.6,3.2,4,3.2,7.2
		c0,3.9-1.6,6.9-4.7,9c-3.1,2.1-7.6,3.2-13.4,3.2c-4.6,0-8.2-0.9-10.7-2.7c-2.5-1.8-3.8-4.3-3.8-7.4c0-2.5,0.8-4.6,2.4-6.3
		c1.6-1.7,3.7-2.8,6.4-3.4c-1.1-0.5-2-1.1-2.7-2c-0.7-0.9-1-1.9-1-3c0-2.5,1.6-4.6,4.7-6.5c-2.1-0.9-3.8-2.3-5-4.1
		c-1.2-1.9-1.8-4-1.8-6.5c0-3.7,1.2-6.6,3.5-8.9c2.3-2.2,5.5-3.3,9.5-3.3c2.4,0,4.3,0.2,5.6,0.7L1991.4,507.6L1991.4,507.6z
		 M1961.7,550.6c0,5.1,3.8,7.6,11.3,7.6c9.7,0,14.5-3.1,14.5-9.2c0-2.2-0.8-3.8-2.3-4.8c-1.5-1-4-1.5-7.3-1.5h-6
		C1965,542.7,1961.7,545.3,1961.7,550.6L1961.7,550.6z M1964.5,519.1c0,2.8,0.9,5,2.6,6.6c1.7,1.6,4,2.4,6.9,2.4
		c3.1,0,5.4-0.8,7.1-2.3c1.6-1.6,2.5-3.8,2.5-6.8c0-3.1-0.8-5.5-2.5-7.1c-1.7-1.6-4-2.4-7.1-2.4c-2.9,0-5.2,0.8-6.9,2.5
		C1965.3,513.7,1964.5,516.1,1964.5,519.1L1964.5,519.1z"/>
</g>
</svg>
